<svg xmlns="http://www.w3.org/2000/svg" width="324" height="200" fill="none" viewBox="0 0 324 200"><path stroke="#fff" stroke-miterlimit="10" stroke-opacity=".27" stroke-width="1.046" d="M-2.99327 515.93C113.497 515.93 207.931 421.496 207.931 305.006C207.931 188.515 113.497 94.0813 -2.99327 94.0813C-119.484 94.0813 -213.918 188.515 -213.918 305.006C-213.918 421.496 -119.484 515.93 -2.99327 515.93Z" opacity=".455"/><path stroke="#fff" stroke-miterlimit="10" stroke-opacity=".27" stroke-width=".886" d="M-3.00798 544.697C129.371 544.697 236.685 437.382 236.685 305.003C236.685 172.624 129.371 65.3099 -3.00798 65.3099C-135.387 65.3099 -242.701 172.624 -242.701 305.003C-242.701 437.382 -135.387 544.697 -3.00798 544.697Z" opacity=".364"/><path stroke="#fff" stroke-miterlimit="10" stroke-opacity=".27" stroke-width=".727" d="M-2.96872 573.465C145.299 573.465 265.493 453.27 265.493 305.003C265.493 156.735 145.299 36.5403 -2.96872 36.5403C-151.236 36.5403 -271.431 156.735 -271.431 305.003C-271.431 453.27 -151.236 573.465 -2.96872 573.465Z" opacity=".273"/><path stroke="#fff" stroke-miterlimit="10" stroke-opacity=".27" stroke-width=".568" d="M-2.98535 599.393C161.171 599.393 294.246 466.318 294.246 302.162C294.246 138.006 161.171 4.93091 -2.98535 4.93091C-167.142 4.93091 -300.216 138.006 -300.216 302.162C-300.216 466.318 -167.142 599.393 -2.98535 599.393Z" opacity=".182"/><path stroke="#fff" stroke-miterlimit="10" stroke-opacity=".27" stroke-width=".409" d="M-3 631C177.045 631 323 485.045 323 305C323 124.955 177.045 -21 -3 -21C-183.045 -21 -329 124.955 -329 305C-329 485.045 -183.045 631 -3 631Z" opacity=".091"/><circle cx="-3.691" cy="302.949" r="184.562" fill="#7950ED"/><path fill="#F85B6E" d="M229.65 174.238C232.35 174.076 234.407 171.757 234.245 169.058C234.082 166.359 231.761 164.302 229.061 164.464C226.361 164.626 224.304 166.945 224.466 169.644C224.629 172.343 226.95 174.4 229.65 174.238Z"/><path fill="#20A4F3" d="M56.5204 44.8424C55.1347 48.8239 50.8392 50.9 46.8555 49.5135C42.8718 48.1271 40.7934 43.8327 42.1791 39.8512C43.5648 35.8697 47.8603 33.7936 51.8439 35.18C55.6948 36.5202 57.906 40.8608 56.5204 44.8424Z"/></svg>