<svg xmlns="http://www.w3.org/2000/svg" width="400" height="400" fill="none" viewBox="0 0 400 400"><ellipse cx="53.549" cy="202.557" stroke="#8F5BFF" stroke-width="2.38" rx="30" ry="29.557"/><ellipse cx="345.641" cy="202.557" stroke="#8F5BFF" stroke-width="2.38" rx="30" ry="29.557"/><ellipse cx="191.641" cy="202.557" stroke="#8F5BFF" stroke-width="2.38" rx="30" ry="29.557"/><path stroke="#fff" stroke-width="2.38" d="M284.643 161.457H350.143C373.062 161.457 391.643 180.037 391.643 202.957V202.957C391.643 225.877 373.062 244.457 350.143 244.457H336.643"/><path stroke="#fff" stroke-width="2.38" d="M115.359 245H49.8594C26.9396 245 8.35939 226.42 8.35939 203.5V203.5C8.35939 180.58 26.9396 162 49.8594 162H63.3594"/><path stroke="url(#paint0_radial)" stroke-linecap="round" stroke-linejoin="round" stroke-width="2.38" d="M69.7891 161.541L278.459 161.541"/><path stroke="url(#paint1_radial)" stroke-linecap="round" stroke-linejoin="round" stroke-width="2.38" d="M121.932 244.457H330.428"/><defs><radialGradient id="paint0_radial" cx="0" cy="0" r="1" gradientTransform="translate(164.644 161.456) rotate(-76.569) scale(34.442 9213.23)" gradientUnits="userSpaceOnUse"><stop stop-color="#fff"/><stop offset="1" stop-color="#fff" stop-opacity="0"/></radialGradient><radialGradient id="paint1_radial" cx="0" cy="0" r="1" gradientTransform="translate(206.631 244.448) rotate(125.853) scale(84.5135 22311.6)" gradientUnits="userSpaceOnUse"><stop stop-color="#fff"/><stop offset="1" stop-color="#fff" stop-opacity="0"/></radialGradient></defs></svg>