<svg xmlns="http://www.w3.org/2000/svg" width="400" height="400" fill="none" viewBox="0 0 400 400"><path stroke="#7950ED" stroke-linecap="round" stroke-linejoin="round" stroke-miterlimit="10" stroke-width="2" d="M236.225 146.105L249.537 157.035L236.225 170.15"/><path stroke="#fff" stroke-linecap="round" stroke-linejoin="round" stroke-miterlimit="10" stroke-width="2" d="M153.867 265.383L140.555 276.312L153.867 289.428"/><path stroke="#fff" stroke-width="2" d="M209.287 216.722L263.163 216.723"/><path stroke="#7950ED" stroke-width="2" d="M132.699 216.934L193.568 216.933"/><path fill-rule="evenodd" stroke="#fff" stroke-width="1.5" d="M208.803 217.041C208.803 212.96 205.445 209.651 201.303 209.651C197.161 209.651 193.803 212.96 193.803 217.041C193.803 221.121 197.161 224.43 201.303 224.43C205.445 224.43 208.803 221.121 208.803 217.041Z" clip-rule="evenodd"/><circle cx="72.107" cy="220.297" r="60" stroke="url(#paint0_linear)" stroke-width="2"/><path stroke="#7950ED" stroke-width="2" d="M72.1074 280.297C38.9703 280.297 12.1074 253.434 12.1074 220.297C12.1074 187.16 38.9703 160.297 72.1074 160.297"/><circle cx="323.674" cy="220.5" r="60" stroke="url(#paint1_linear)" stroke-width="2"/><path stroke="#fff" stroke-width="2" d="M323.674 160.5C356.811 160.5 383.674 187.363 383.674 220.5C383.674 253.637 356.811 280.5 323.674 280.5"/><path stroke="url(#paint2_linear)" stroke-width="2" d="M72.1074 160.297L238.535 160.297"/><path stroke="url(#paint3_linear)" stroke-width="2" d="M153.107 280.531H323.673"/><circle cx="72.107" cy="220.5" r="29" stroke="#fff" stroke-width="2"/><circle cx="323.674" cy="220.5" r="29" stroke="#7950ED" stroke-width="2"/><defs><linearGradient id="paint0_linear" x1="132.109" x2="137.193" y1="220.297" y2="188.225" gradientUnits="userSpaceOnUse"><stop stop-color="#7950ED"/><stop offset="1" stop-color="#7950ED" stop-opacity="0"/></linearGradient><linearGradient id="paint1_linear" x1="295.472" x2="288.16" y1="231.948" y2="254.878" gradientUnits="userSpaceOnUse"><stop stop-color="#fff"/><stop offset="1" stop-color="#fff" stop-opacity="0"/></linearGradient><linearGradient id="paint2_linear" x1="189.077" x2="243.705" y1="23934000" y2="23934000" gradientUnits="userSpaceOnUse"><stop stop-color="#7950ED"/><stop offset="1" stop-color="#7950ED" stop-opacity="0"/></linearGradient><linearGradient id="paint3_linear" x1="212.109" x2="153.107" y1="280.531" y2="280.531" gradientUnits="userSpaceOnUse"><stop stop-color="#fff"/><stop offset="1" stop-color="#fff" stop-opacity="0"/></linearGradient></defs></svg>